<svg xmlns="http://www.w3.org/2000/svg" version="1.1" viewBox="0 0 776.9 392" xml:space="preserve"><path fill="#fff" d="M753.5 268.2H5.5l9-5h729.9z"/><path fill="#fff" d="m10.1 292.1h6.9v73.9h-6.9v-73.9zm25.4 39.2c0-0.9 0-2-0.1-3.3s-0.1-2.6-0.2-3.9c0-1.3-0.1-2.6-0.2-3.7s-0.1-2-0.1-2.7h6.3c0.1 1.8 0.1 3.5 0.2 5.2 0 1.7 0.1 2.7 0.3 3.2h0.3c1.3-2.6 3.3-4.9 6.3-6.8 2.9-1.9 6.3-2.9 10.2-2.9 3.2 0 6.1 0.8 8.8 2.5 2.6 1.6 4.6 4.3 5.7 8 1.5-3.6 3.8-6.3 6.8-7.9 3-1.7 6.2-2.5 9.5-2.5 3.8 0 6.8 0.6 9.2 1.8s4.2 2.7 5.6 4.6 2.3 4.1 2.8 6.6 0.8 5.1 0.8 7.7v28.8h-6.3v-28.4c0-1.9-0.2-3.8-0.5-5.7-0.3-1.8-1-3.5-1.8-5-0.9-1.5-2.1-2.6-3.7-3.5s-3.6-1.3-6.1-1.3c-2.9 0-5.3 0.5-7.2 1.6s-3.4 2.5-4.4 4.1c-1.1 1.7-1.8 3.5-2.3 5.4s-0.7 3.8-0.7 5.5v27.3h-6.3v-29c0-4.5-0.8-8-2.5-10.7-1.6-2.7-4.2-4.1-7.6-4.1-2.3 0-4.5 0.4-6.5 1.2-2.1 0.8-3.8 2-5.3 3.7-1.5 1.6-2.7 3.7-3.5 6.2-0.9 2.5-1.3 5.4-1.3 8.7v24h-6.3v-34.7zm126.3 14.4c0 2.4 0 4.5 0.1 6.4 0 1.9 0.1 3.6 0.2 5.2s0.2 3.1 0.3 4.5 0.3 2.8 0.5 4.2h-5.8c-0.4-2.4-0.6-5-0.6-7.8h-0.2c-1.8 3.1-4.1 5.4-6.7 6.9-2.7 1.5-6.1 2.2-10.2 2.2-2.1 0-4.1-0.3-6.2-0.8-2-0.5-3.8-1.4-5.4-2.5s-2.9-2.6-3.9-4.4-1.5-4-1.5-6.6c0-3.7 0.9-6.6 2.8-8.8s4.2-3.8 6.9-4.9 5.7-1.8 8.8-2.1 5.8-0.5 8.2-0.5h7.3v-2.9c0-4.2-1.3-7.2-3.9-9s-5.8-2.7-9.7-2.7c-5.6 0-10.5 1.8-14.7 5.4l-3.7-4.3c2.3-2.2 5.1-3.9 8.6-5.1 3.4-1.1 6.7-1.7 9.8-1.7 5.8 0 10.5 1.4 14 4.1s5.2 7.2 5.2 13.3v11.9zm-12.5-4c-2.6 0-5.2 0.2-7.7 0.5s-4.7 0.9-6.7 1.8-3.6 1.9-4.7 3.3c-1.2 1.4-1.8 3.1-1.8 5.2 0 1.5 0.3 2.8 1 3.9s1.5 2.1 2.6 2.8c1 0.7 2.2 1.3 3.5 1.7s2.6 0.6 3.9 0.6c3.3 0 6.1-0.5 8.2-1.5 2.2-1 3.9-2.2 5.2-3.8s2.2-3.3 2.7-5.3 0.7-4 0.7-6v-3.2h-6.9zm77.6 21.1c0 6-0.9 10.8-2.6 14.5s-3.9 6.5-6.5 8.6c-2.6 2-5.4 3.4-8.4 4.1s-5.7 1-8.1 1-4.8-0.2-7.1-0.7-4.5-1.1-6.6-2-4-1.9-5.7-3.2-3.2-2.7-4.4-4.3l4.9-4.6c2.2 3.1 5 5.4 8.3 6.9s6.9 2.2 10.6 2.2c3.2 0 5.9-0.4 8.1-1.3 2.2-0.8 4-1.9 5.4-3.3s2.5-2.9 3.3-4.5 1.4-3.3 1.8-4.9 0.6-3.2 0.7-4.6c0.1-1.5 0.1-2.6 0.1-3.5v-6.7h-0.2c-1.8 2.9-4.3 5.2-7.4 6.9s-6.7 2.5-10.9 2.5c-3.5 0-6.9-0.6-10-1.9s-5.9-3.1-8.2-5.3c-2.3-2.3-4.2-4.9-5.5-7.9s-2-6.2-2-9.6 0.7-6.6 2-9.6c1.4-3 3.2-5.6 5.5-7.8s5.1-4 8.2-5.3 6.5-2 10-2c4.2 0 7.8 0.8 10.9 2.5s5.5 4 7.4 6.9h0.2v-8.1h6.3v45zm-6.1-21.6c0-2.6-0.5-5.1-1.5-7.5-1-2.3-2.4-4.3-4.1-6.1-1.7-1.7-3.7-3.1-6.1-4.1-2.3-1-4.8-1.5-7.5-1.5-2.6 0-5.1 0.5-7.5 1.5-2.3 1-4.3 2.4-6.1 4.1-1.7 1.7-3.1 3.7-4.1 6.1-1 2.3-1.5 4.8-1.5 7.5 0 2.6 0.5 5.1 1.5 7.5 1 2.3 2.4 4.3 4.1 6s3.7 3.1 6.1 4.1c2.3 1 4.8 1.5 7.5 1.5 2.6 0 5.1-0.5 7.5-1.5 2.3-1 4.3-2.4 6.1-4.1 1.7-1.7 3.1-3.7 4.1-6s1.5-4.8 1.5-7.5zm64 15.7c-2.4 3.7-5.4 6.3-9 7.9s-7.5 2.4-11.8 2.4c-3.7 0-7-0.6-10-1.9s-5.6-3-7.7-5.3c-2.2-2.3-3.8-4.9-5-8-1.1-3.1-1.7-6.5-1.7-10.3 0-3.6 0.6-7 1.8-10 1.2-3.1 2.9-5.7 5-8 2.2-2.3 4.7-4 7.6-5.3s6.2-1.9 9.7-1.9c3.7 0 6.9 0.6 9.8 1.9 2.8 1.3 5.2 3 7.1 5.1s3.4 4.5 4.3 7.2c1 2.7 1.5 5.5 1.5 8.2v4.4h-40.5c0 1.3 0.3 3 0.8 5.1s1.5 4.1 2.9 6 3.3 3.6 5.6 5 5.3 2.1 9 2.1c3.2 0 6.3-0.8 9.3-2.3s5.3-3.6 6.9-6.3l4.4 4zm-4.8-19.1c0-2.2-0.4-4.2-1.3-6.1s-2.1-3.5-3.5-5c-1.5-1.4-3.3-2.6-5.3-3.4-2.1-0.8-4.2-1.3-6.5-1.3-3.4 0-6.2 0.7-8.5 2.1s-4.1 3-5.4 4.8-2.3 3.6-2.8 5.3c-0.6 1.7-0.8 2.9-0.8 3.5h34.1z"/><path fill="#fff" d="m394.8 292.1h7.1l31.1 73.9h-7.7l-8-19.6h-39.1l-8.3 19.6h-7.2l32.1-73.9zm3.2 7.5l-17.2 40.5h33.9l-16.7-40.5zm47.6 52.7c1.8 3.1 4.2 5.5 7 7 2.9 1.5 6.2 2.3 9.9 2.3 2.3 0 4.5-0.3 6.5-1s3.8-1.7 5.3-2.9c1.5-1.3 2.7-2.8 3.5-4.5s1.3-3.8 1.3-6c0-2.6-0.5-4.7-1.6-6.4s-2.5-3-4.3-4.1-3.8-2-6.1-2.8-4.6-1.5-7-2.3-4.7-1.6-7-2.6-4.3-2.2-6.1-3.8-3.3-3.5-4.3-5.9c-1.1-2.4-1.6-5.3-1.6-8.8 0-3.3 0.6-6.2 1.9-8.7s3-4.7 5.2-6.4 4.7-3 7.6-3.9c2.8-0.9 5.8-1.3 9-1.3 4 0 7.8 0.7 11.2 2.1s6.4 3.8 8.9 7.1l-5.9 4.3c-1.7-2.4-3.8-4.3-6.1-5.5s-5.1-1.8-8.3-1.8c-2.2 0-4.3 0.3-6.4 0.9-2 0.6-3.8 1.5-5.3 2.6s-2.7 2.6-3.6 4.3-1.4 3.8-1.4 6.2c0 3.7 0.9 6.5 2.8 8.5s4.2 3.5 7 4.7 5.9 2.2 9.2 3c3.3 0.9 6.4 2 9.2 3.5s5.2 3.5 7 6.1c1.9 2.6 2.8 6.2 2.8 10.8 0 3.3-0.6 6.3-1.9 8.9s-2.9 4.7-5.1 6.5-4.6 3.1-7.4 4-5.7 1.4-8.7 1.4c-4.9 0-9.4-0.9-13.5-2.6s-7.6-4.6-10.5-8.6l6.8-4.3zm116.8 2.1c-3.5 4.8-7.7 8.2-12.3 10.3-4.7 2.1-9.7 3.1-15.1 3.1-5.6 0-10.8-1-15.5-2.9s-8.7-4.6-12-8-5.9-7.5-7.8-12.3-2.8-10-2.8-15.6 0.9-10.8 2.8-15.5 4.5-8.8 7.8-12.3 7.4-6.1 12-8.1c4.7-1.9 9.9-2.9 15.5-2.9 5 0 9.7 0.9 14 2.7s8.2 4.7 11.4 8.9l-5.6 4.7c-2.3-3.5-5.2-6-8.8-7.6s-7.3-2.4-11-2.4c-4.8 0-9.1 0.8-13 2.5s-7.1 4-9.9 6.9-4.8 6.4-6.3 10.3c-1.5 4-2.2 8.2-2.2 12.8s0.7 8.9 2.2 12.8c1.5 4 3.5 7.4 6.3 10.3s6 5.2 9.9 6.9 8.2 2.5 13 2.5c1.9 0 3.8-0.2 5.8-0.7s4-1.1 5.9-2.1c1.9-0.9 3.7-2.1 5.5-3.5 1.7-1.4 3.3-3.1 4.6-5.2l5.6 4.4zm12.6-62.3h6.9v73.9h-6.9v-73.9zm27.1 0h6.9v73.9h-6.9v-73.9z"/><path fill="#fff" d="M668.8 292.1h7.1L707 366h-7.7l-8-19.6h-39.1l-8.3 19.6h-7.2l32.1-73.9zm3.2 7.5l-17.2 40.5h33.9L672 299.6zM715.8 331.3c0-.9 0-2-.1-3.3-.1-1.3-.1-2.6-.2-3.9 0-1.3-.1-2.6-.2-3.7s-.1-2-.1-2.7h6.3c.1 1.8.1 3.5.2 5.2 0 1.7.1 2.7.3 3.2 1.6-2.9 3.7-5.2 6.2-7 2.5-1.8 5.6-2.7 9.2-2.7.6 0 1.2.1 1.8.2.6.1 1.2.2 1.8.4l-.7 6.2c-.8-.3-1.6-.4-2.4-.4-2.7 0-5.1.4-7 1.3-2 .9-3.6 2.1-4.9 3.6-1.3 1.5-2.2 3.3-2.9 5.4-.6 2.1-.9 4.3-.9 6.6V366h-6.3v-34.7zM774.1 323.4h-13.8v31.4c0 2.2.6 3.8 1.8 5 1.2 1.2 2.8 1.8 4.9 1.8 1.2 0 2.4-.2 3.6-.5 1.2-.3 2.4-.7 3.5-1.2l.5 5.6c-1.2.4-2.5.8-4.1 1.1-1.5.3-2.9.5-4.1.5-2.2 0-4.1-.3-5.7-1-1.6-.7-2.9-1.5-3.9-2.7-1-1.1-1.7-2.4-2.1-3.9-.5-1.5-.7-3.1-.7-4.9v-31.4h-10.4v-5.6H754v-13.9h6.3v13.9h13.8v5.8z"/><path fill="#fff" d="m319.5 340.8h-8v18.2c0 1.2 0.3 2.2 1 2.9s1.6 1 2.8 1c0.7 0 1.4-0.1 2.1-0.3s1.4-0.4 2-0.7l0.3 3.3c-0.7 0.2-1.5 0.5-2.4 0.7s-1.7 0.3-2.4 0.3c-1.3 0-2.4-0.2-3.3-0.6s-1.7-0.9-2.2-1.5c-0.6-0.6-1-1.4-1.2-2.3-0.3-0.9-0.4-1.8-0.4-2.8v-18.2h-6v-3.3h6v-8h3.6v8h8v3.3zm4.9 10.7c0-2.1 0.4-4.1 1.1-5.9s1.7-3.3 3-4.7c1.3-1.3 2.8-2.3 4.7-3.1 1.8-0.7 3.8-1.1 5.9-1.1s4.1 0.4 5.9 1.1 3.3 1.7 4.7 3.1c1.3 1.3 2.3 2.9 3.1 4.7s1.1 3.8 1.1 5.9-0.4 4.1-1.1 5.9-1.7 3.3-3.1 4.7c-1.3 1.3-2.9 2.3-4.7 3.1-1.8 0.7-3.8 1.1-5.9 1.1s-4.1-0.4-5.9-1.1-3.4-1.7-4.7-3.1c-1.3-1.3-2.3-2.9-3-4.7-0.7-1.7-1.1-3.7-1.1-5.9zm3.6 0c0 1.6 0.3 3.1 0.8 4.4 0.5 1.4 1.2 2.6 2.2 3.6s2.1 1.8 3.5 2.4 2.9 0.9 4.6 0.9 3.2-0.3 4.6-0.9 2.5-1.4 3.5-2.4 1.7-2.2 2.2-3.6 0.8-2.9 0.8-4.4-0.3-3.1-0.8-4.4c-0.5-1.4-1.2-2.6-2.2-3.6s-2.1-1.8-3.5-2.4-2.9-0.9-4.6-0.9-3.2 0.3-4.6 0.9-2.5 1.4-3.5 2.4-1.7 2.2-2.2 3.6-0.8 2.9-0.8 4.4z"/><path fill="#fff" d="m518.5 0h39v268h-39z"/><path fill="#fff" d="M630.9 162l33.7 106h51.6L630.9 0l-85.2 268h51.5z"/></svg>